<svg width="62" height="62" viewBox="0 0 62 62" fill="none" xmlns="http://www.w3.org/2000/svg">
<rect width="62" height="62" rx="6" fill="white"/>
<path d="M46.883 25.156L46.9002 19.0959C46.9001 19.1159 46.8985 19.1359 46.8977 19.1558C46.9255 18.4285 46.4859 17.6955 45.5777 17.1288C45.5326 17.1007 45.4866 17.0731 45.4401 17.0462C43.4923 15.9215 40.3449 15.9213 38.4098 17.0458C37.5536 17.5434 37.0792 18.1784 36.9849 18.8286C36.9519 19.0527 36.4867 19.1538 36.2109 18.9945L30.316 15.5911L25.1001 18.6222C25.0067 18.6765 24.9665 18.7438 24.9683 18.8095C24.9682 18.808 24.9675 18.8065 24.9675 18.8049L24.9504 24.8163C23.6909 24.8108 22.4327 24.5307 21.4684 23.9741C20.6055 23.4758 20.1239 22.8402 20.0223 22.1894C20.0119 22.1218 19.9622 22.0655 19.8905 22.024C19.7242 21.9279 19.439 21.9121 19.2476 22.0234L14.0315 25.0546L14 36.199L15.1174 36.8441L15.1002 42.9043C15.0982 43.6118 15.5393 44.3202 16.4228 44.8714C16.4679 44.8995 16.5139 44.9272 16.5604 44.954C18.5077 46.0782 21.655 46.0786 23.5901 44.954C24.4464 44.4565 24.9207 43.8215 25.0151 43.1713C25.048 42.9472 25.5132 42.8461 25.7891 43.0054L31.6839 46.4087L36.8941 43.381C36.9853 43.328 37.0267 43.2626 37.0268 43.1984L37.0438 37.1912C38.246 37.1946 39.4478 37.4464 40.3883 37.9472C40.4395 37.9745 40.4895 38.0022 40.5383 38.0303C41.3984 38.5269 41.8804 39.1596 41.984 39.8082C41.9945 39.8753 42.0439 39.9313 42.1152 39.9725C42.2816 40.0685 42.5671 40.0841 42.7581 39.973L47.9683 36.9453L48 25.8009L46.883 25.156Z" fill="#F18700"/>
<path d="M29.9353 21.9521L29.9037 33.0966C29.9057 32.3895 29.465 31.6814 28.5824 31.1305C28.5367 31.102 28.4904 31.0742 28.4434 31.047C27.5803 30.5487 26.4809 30.2717 25.357 30.2153C25.2409 30.2095 25.1438 30.181 25.0722 30.1396C24.9851 30.0893 24.9358 30.02 24.9359 29.9494L24.9675 18.8049C24.9673 18.8755 25.0166 18.9448 25.1037 18.9951C25.1753 19.0365 25.2724 19.0649 25.3885 19.0708C26.5125 19.1273 27.6118 19.4042 28.4749 19.9025C28.522 19.9297 28.5683 19.9575 28.614 19.986C29.4966 20.537 29.9373 21.2451 29.9353 21.9521Z" fill="#F18700"/>
<path d="M46.9001 19.0959L46.8686 30.2404C46.8667 30.9376 46.4342 31.6338 45.5704 32.1773C44.6942 32.7284 43.5416 33.0334 42.357 33.0935C42.1012 33.1064 41.9392 33.2293 41.9388 33.3568L41.9704 22.2123C41.9707 22.0846 42.1327 21.9619 42.3885 21.949C43.5732 21.8889 44.7257 21.5839 45.6019 21.0328C46.4658 20.4894 46.8982 19.7931 46.9001 19.0959Z" fill="#D07400"/>
<path d="M19.9265 28.4581L19.8948 39.6026L14 36.1992L14.0315 25.0547L19.9265 28.4581Z" fill="#F18700"/>
<path d="M20.0612 28.6434L20.0297 39.7879C20.0299 39.7227 19.9879 39.6562 19.8949 39.6025L19.9264 28.458C20.0195 28.5117 20.0614 28.5782 20.0612 28.6434Z" fill="#FFA834"/>
<path d="M48 25.801L47.9684 36.9455L42.7582 39.9734L42.7898 28.8289L48 25.801Z" fill="#D07400"/>
<path d="M32.0654 40.0521L32.097 28.9076C32.0991 28.1401 32.6279 27.3737 33.6841 26.8059C35.5664 25.7942 38.524 25.7932 40.4199 26.8028C40.4711 26.8301 40.5211 26.8578 40.5699 26.886C41.4299 27.3825 41.912 28.0152 42.0156 28.6638C42.0261 28.7309 42.0755 28.787 42.1468 28.8281C42.3132 28.9242 42.5987 28.9397 42.7897 28.8287L42.7582 39.9732C42.5672 40.0841 42.2816 40.0686 42.1153 39.9726C42.044 39.9314 41.9946 39.8754 41.9841 39.8083C41.8805 39.1596 41.3984 38.527 40.5383 38.0304C40.4895 38.0023 40.4396 37.9746 40.3884 37.9473C38.4924 36.9377 35.5348 36.9387 33.6525 37.9504C32.5963 38.5183 32.0677 39.2847 32.0654 40.0521Z" fill="#F18700"/>
<path d="M37.0586 32.0542L37.027 43.1987C37.0268 43.263 36.9855 43.3283 36.8943 43.3812L36.9258 32.2367C37.0171 32.1838 37.0584 32.1185 37.0586 32.0542Z" fill="#D07400"/>
<path d="M15.1002 42.9045L15.1318 31.76C15.1298 32.4675 15.5709 33.1759 16.4544 33.7272C16.4995 33.7553 16.5455 33.7829 16.592 33.8097C18.5393 34.934 21.6867 34.9344 23.6217 33.8098C24.478 33.3122 24.9523 32.6772 25.0467 32.0271C25.0796 31.803 25.5448 31.7019 25.8207 31.8611L25.7891 43.0056C25.5133 42.8464 25.0481 42.9475 25.0151 43.1716C24.9208 43.8217 24.4464 44.4568 23.5902 44.9543C21.6551 46.0789 18.5078 46.0785 16.5604 44.9543C16.5139 44.9274 16.4679 44.8999 16.4229 44.8717C15.5394 44.3204 15.0982 43.612 15.1002 42.9045Z" fill="#D07400"/>
<path d="M36.9257 32.2366L36.8941 43.3811L31.684 46.4089L31.7156 35.2644L36.9257 32.2366Z" fill="#D07400"/>
<path d="M31.7156 35.2645L31.6839 46.409L25.7891 43.0056L25.8207 31.8611L31.7156 35.2645Z" fill="#F18700"/>
<path d="M45.4401 17.0463C45.4866 17.0731 45.5326 17.1007 45.5777 17.1288C47.3315 18.2231 47.3423 19.9379 45.602 21.0328C44.7258 21.5839 43.5732 21.8889 42.3886 21.949C42.0024 21.9686 41.83 22.2386 42.1052 22.3976L48 25.801L42.7898 28.8288C42.5989 28.9398 42.3132 28.9242 42.147 28.8283C42.0756 28.787 42.0262 28.731 42.0157 28.6639C41.9122 28.0153 41.43 27.3827 40.57 26.8861C40.5212 26.8579 40.4713 26.8302 40.4201 26.8029C38.524 25.7934 35.5665 25.7944 33.6842 26.806C31.6076 27.9224 31.5701 29.8062 33.5643 30.9576C34.4238 31.4538 35.5181 31.7306 36.6379 31.7885C36.754 31.7945 36.8511 31.8231 36.9225 31.8644C37.0889 31.9604 37.117 32.1255 36.9258 32.2367L31.7156 35.2645L25.8208 31.8611C25.545 31.7019 25.0798 31.8029 25.0468 32.0271C24.9525 32.6772 24.478 33.3122 23.6219 33.8097C21.6868 34.9343 18.5395 34.9339 16.5921 33.8097C16.5456 33.7828 16.4996 33.7553 16.4546 33.7271C14.7002 32.6325 14.69 30.918 16.4303 29.8224C17.306 29.2717 18.4585 28.9666 19.6431 28.9065C20.0299 28.8874 20.2018 28.6169 19.9266 28.458L14.0316 25.0547L19.2476 22.0235C19.439 21.9123 19.7242 21.928 19.8905 22.024C19.9622 22.0655 20.012 22.1218 20.0223 22.1894C20.1239 22.8402 20.6054 23.4759 21.4685 23.9742C23.4627 25.1255 26.7148 25.0976 28.6343 23.8912C30.3769 22.7963 30.3679 21.0811 28.614 19.9861C28.5683 19.9577 28.522 19.9299 28.475 19.9027C27.6119 19.4044 26.5125 19.1274 25.3886 19.071C25.2725 19.0652 25.1754 19.0367 25.1038 18.9953C24.9372 18.8991 24.9089 18.7336 25.1002 18.6225L30.316 15.5913L36.2108 18.9947C36.4866 19.1539 36.9518 19.0529 36.9848 18.8287C37.0792 18.1786 37.5535 17.5436 38.4097 17.046C40.3449 15.9213 43.4923 15.9216 45.4401 17.0463Z" fill="#FFA834"/>
</svg>
