<svg width="62" height="62" viewBox="0 0 62 62" fill="none" xmlns="http://www.w3.org/2000/svg">
<rect width="62" height="62" rx="6" fill="white"/>
<g clip-path="url(#clip0_1055_1403)">
<path d="M22.8078 40.2918C22.8071 39.0656 23.2843 37.9129 24.1513 37.0459C24.2898 36.9074 24.4363 36.7799 24.5886 36.6617C22.6093 35.0874 21.3401 32.6586 21.3401 29.9331C21.3401 25.1873 25.1873 21.3401 29.9331 21.3401C34.6788 21.3401 38.526 25.1873 38.526 29.9331C38.526 31.3836 38.1661 32.7497 37.5315 33.9482L42.1594 29.3203C43.0261 28.4537 44.1783 27.9764 45.4038 27.9764C45.4723 27.9764 45.5404 27.9784 45.6084 27.9814C45.4991 27.8665 45.3606 27.7782 45.201 27.7303L42.7356 26.9899C42.4356 26.8997 42.1987 26.6658 42.1105 26.3652C41.8518 25.4838 41.4999 24.6419 41.0661 23.851C40.9151 23.5756 40.9162 23.2417 41.0651 22.965L42.2868 20.6946C42.4821 20.3316 42.4163 19.8835 42.1248 19.5921L40.2741 17.7413C39.9826 17.4499 39.5345 17.3841 39.1716 17.5794L36.9011 18.801C36.6245 18.9499 36.2906 18.9511 36.0151 18.8C35.2242 18.3662 34.3823 18.0143 33.5009 17.7557C33.2004 17.6675 32.9664 17.4305 32.8763 17.1306L32.1359 14.6651C32.0173 14.2703 31.6539 14 31.2417 14H28.6244C28.2122 14 27.8488 14.2703 27.7303 14.6651L26.9899 17.1305C26.8997 17.4305 26.6658 17.6674 26.3652 17.7556C25.4838 18.0143 24.6419 18.3662 23.851 18.8C23.5756 18.9511 23.2417 18.9499 22.965 18.801L20.6946 17.5793C20.3316 17.384 19.8835 17.4498 19.5921 17.7413L17.7413 19.5921C17.4499 19.8835 17.3841 20.3316 17.5794 20.6946L18.801 22.965C18.9499 23.2418 18.9511 23.5756 18.8 23.851C18.3662 24.6419 18.0143 25.4838 17.7557 26.3652C17.6675 26.6658 17.4305 26.8997 17.1306 26.9899L14.6651 27.7303C14.2703 27.8488 14 28.2123 14 28.6244V31.2418C14 31.654 14.2703 32.0173 14.6651 32.1359L17.1305 32.8763C17.4305 32.9664 17.6674 33.2004 17.7556 33.5009C18.0143 34.3823 18.3662 35.2242 18.8 36.0151C18.9511 36.2906 18.9499 36.6245 18.801 36.9011L17.5793 39.1716C17.384 39.5345 17.4498 39.9826 17.7413 40.2741L19.592 42.1248C19.8835 42.4163 20.3316 42.4821 20.6945 42.2868L22.8818 41.1099C22.8338 40.8425 22.8079 40.5692 22.8078 40.2918Z" fill="#000834"/>
<path d="M30.6802 47.2328C31.7057 48.2559 33.366 48.2556 34.391 47.232L47.2397 34.4003C48.2535 33.3865 48.2535 31.7428 47.2397 30.7289C46.2259 29.715 44.5821 29.715 43.5683 30.7289L32.5361 41.7611L29.2294 38.4545C28.2161 37.4412 26.5733 37.4412 25.56 38.4545C24.5459 39.4686 24.5469 41.113 25.5621 42.126L30.6802 47.2328Z" fill="#000834"/>
</g>
<defs>
<clipPath id="clip0_1055_1403">
<rect width="34" height="34" fill="white" transform="translate(14 14)"/>
</clipPath>
</defs>
</svg>
