<svg width="62" height="62" viewBox="0 0 62 62" fill="none" xmlns="http://www.w3.org/2000/svg">
<rect width="62" height="62" rx="6" fill="white"/>
<path d="M17.8923 43.3076C16.9753 43.3076 16.2307 42.563 16.2307 41.6461V17.8923C16.2307 16.9753 16.9753 16.2307 17.8923 16.2307H44.1076C45.0246 16.2307 45.7692 16.9753 45.7692 17.8923V41.6461C45.7692 42.563 45.0246 43.3076 44.1076 43.3076H17.8923Z" fill="#34A853"/>
<path d="M45.7692 22.3652V17.8906C45.7692 16.9739 45.026 16.2307 44.1092 16.2307H17.8906C16.9739 16.2307 16.2307 16.9739 16.2307 17.8906V22.3652H45.7692Z" fill="#D0D0D0"/>
<path d="M20.7089 19.2979C20.7089 19.9326 20.1907 20.4444 19.5559 20.4444C18.9276 20.4444 18.4094 19.9326 18.4094 19.2979C18.4094 18.6631 18.9276 18.1514 19.5559 18.1514C20.1907 18.1514 20.7089 18.6631 20.7089 19.2979Z" fill="#FF4848"/>
<path d="M24.7938 19.2979C24.7938 19.9326 24.2757 20.4444 23.6409 20.4444C23.0126 20.4444 22.4944 19.9327 22.4944 19.2979C22.4944 18.6631 23.0126 18.1514 23.6409 18.1514C24.2757 18.1514 24.7938 18.6631 24.7938 19.2979Z" fill="#FFEB33"/>
<path d="M28.8788 19.2979C28.8788 19.9326 28.3606 20.4444 27.7259 20.4444C27.0975 20.4444 26.5793 19.9327 26.5793 19.2979C26.5793 18.6631 27.0975 18.1514 27.7259 18.1514C28.3606 18.1514 28.8788 18.6631 28.8788 19.2979Z" fill="#66CCFF"/>
<path d="M30.0676 27.2412H31.9322V29.7692H30.0676V27.2412Z" fill="#FFD9D9"/>
<path d="M39.3565 37.4085C39.3565 42.0218 35.6173 45.769 31.0041 45.769C26.3828 45.769 22.6436 42.0218 22.6436 37.4085C22.6436 32.7872 26.3827 29.0481 31.0041 29.0481C35.6173 29.0481 39.3565 32.7872 39.3565 37.4085Z" fill="#66CCFF"/>
<path d="M37.5842 37.4087C37.5842 41.0436 34.6381 43.9961 31.0032 43.9961C27.362 43.9961 24.4158 41.0436 24.4158 37.4087C24.4158 33.7674 27.362 30.8213 31.0032 30.8213C34.6381 30.8213 37.5842 33.7675 37.5842 37.4087Z" fill="white"/>
<path d="M36.1076 33.2461C34.9815 32.3292 33.5353 31.7754 31.9599 31.7754C28.3168 31.7754 25.3692 34.7231 25.3692 38.3662C25.3692 39.9354 25.923 41.3754 26.8338 42.5077C25.3568 41.2954 24.4153 39.4615 24.4153 37.4061C24.4153 33.7692 27.363 30.8215 31.0061 30.8215C33.0615 30.8215 34.9015 31.7692 36.1076 33.2461Z" fill="#C9EAF5"/>
<path d="M33.5397 26.0782V27.2174C33.5397 27.4213 33.3744 27.5866 33.1705 27.5866H28.8294C28.6255 27.5866 28.4602 27.4213 28.4602 27.2174V26.0782C28.4602 25.8743 28.6255 25.709 28.8294 25.709H33.1705C33.3744 25.709 33.5397 25.8743 33.5397 26.0782Z" fill="white"/>
<path d="M25.448 37.7654H24.425C24.4201 37.6442 24.4153 37.5278 24.4153 37.4066C24.4153 37.2805 24.4201 37.1593 24.425 37.0381H25.448C25.6517 37.0381 25.8117 37.2029 25.8117 37.4017C25.8117 37.6054 25.6517 37.7654 25.448 37.7654Z" fill="#666666"/>
<path d="M26.5052 39.9959C26.607 40.1704 26.544 40.3935 26.3743 40.4953L25.4869 41.0093C25.356 40.8056 25.23 40.5971 25.1233 40.3789L26.0106 39.8649C26.1852 39.7631 26.4034 39.8262 26.5052 39.9959Z" fill="#666666"/>
<path d="M26.5098 34.8124C26.442 34.9288 26.3207 34.9918 26.1947 34.9918C26.1316 34.9918 26.0686 34.9773 26.0153 34.9434L25.1279 34.4294C25.2346 34.2112 25.3558 34.0027 25.4916 33.7991L26.3789 34.313C26.5486 34.4148 26.6117 34.6379 26.5098 34.8124Z" fill="#666666"/>
<path d="M28.5367 42.396L28.0227 43.2833C27.8045 43.1718 27.596 43.0506 27.3923 42.9197L27.9063 42.0323C28.0081 41.8578 28.2263 41.7996 28.4009 41.8966C28.5754 41.9984 28.6336 42.2214 28.5367 42.396Z" fill="#666666"/>
<path d="M28.5416 32.4174C28.6434 32.5919 28.5852 32.815 28.4107 32.9119C28.3525 32.9459 28.2894 32.9653 28.2313 32.9653C28.1052 32.9653 27.9791 32.8974 27.9161 32.781L27.4021 31.8937C27.6057 31.7579 27.8142 31.6367 28.0324 31.53L28.5416 32.4174Z" fill="#666666"/>
<path d="M31.3587 42.9584V43.9863C31.2423 43.9912 31.1211 43.996 31.0047 43.996C30.8786 43.996 30.7574 43.9912 30.6313 43.9815V42.9584C30.6313 42.7596 30.7962 42.5947 30.995 42.5947C31.1938 42.5947 31.3587 42.7596 31.3587 42.9584Z" fill="#666666"/>
<path d="M31.0048 30.822C31.126 30.822 31.2472 30.8269 31.3684 30.8317V31.8597C31.3684 32.0585 31.2036 32.2233 31.0048 32.2233C30.806 32.2233 30.6411 32.0585 30.6411 31.8597V30.8317C30.7623 30.8269 30.8836 30.822 31.0048 30.822Z" fill="#666666"/>
<path d="M34.0886 42.0372L34.5978 42.9245C34.3941 43.0603 34.1856 43.1815 33.9674 43.2882L33.4583 42.4009C33.3565 42.2263 33.4147 42.0033 33.5892 41.9015C33.7638 41.8045 33.9868 41.8627 34.0886 42.0372Z" fill="#666666"/>
<path d="M33.9769 31.5347C34.1951 31.6414 34.4036 31.7626 34.6073 31.8983L34.0933 32.7857C34.0254 32.902 33.9042 32.9651 33.7782 32.9651C33.7151 32.9651 33.6569 32.9505 33.5988 32.9166C33.4242 32.8196 33.366 32.5965 33.463 32.422L33.9769 31.5347Z" fill="#666666"/>
<path d="M35.9843 39.8746L36.8716 40.3885C36.7649 40.6067 36.6437 40.8152 36.508 41.014L35.6206 40.5049C35.4509 40.4031 35.3879 40.18 35.4897 40.0055C35.5915 39.8309 35.8097 39.7727 35.9843 39.8746Z" fill="#666666"/>
<path d="M35.4946 34.8174C35.3928 34.6428 35.4558 34.4246 35.6255 34.3228L36.5128 33.8088C36.6486 34.0125 36.7698 34.221 36.8765 34.4392L35.9892 34.9531C35.9358 34.9871 35.8728 35.0016 35.8098 35.0016C35.6837 35.0017 35.5625 34.9338 35.4946 34.8174Z" fill="#666666"/>
<path d="M37.5844 37.4067C37.5844 37.5279 37.5796 37.6539 37.5747 37.7752H36.5516C36.348 37.7752 36.188 37.6152 36.188 37.4115C36.188 37.2127 36.348 37.0479 36.5516 37.0479H37.5747C37.5796 37.1642 37.5844 37.2854 37.5844 37.4067Z" fill="#666666"/>
<path d="M31.0001 37.8024C30.7789 37.8024 30.5999 37.6233 30.5999 37.4025V33.4449C30.5999 33.224 30.7789 33.0449 31.0001 33.0449C31.2212 33.0449 31.4003 33.224 31.4003 33.4449V37.4025C31.4003 37.6233 31.2213 37.8024 31.0001 37.8024Z" fill="#666666"/>
<path d="M32.2845 37.4063C32.2845 38.1186 31.7067 38.6907 31 38.6907C30.2933 38.6907 29.7156 38.1186 29.7156 37.4063C29.7156 36.6996 30.2933 36.1274 31 36.1274C31.7067 36.1274 32.2845 36.6996 32.2845 37.4063Z" fill="#FF4848"/>
<path opacity="0.5" d="M18.4092 32.0321C18.2818 32.0321 18.1785 31.9287 18.1785 31.8013V25.709C18.1785 25.5816 18.2818 25.4783 18.4092 25.4783C18.5366 25.4783 18.64 25.5816 18.64 25.709V31.8013C18.64 31.9287 18.5366 32.0321 18.4092 32.0321Z" fill="white"/>
</svg>
