<svg width="62" height="62" viewBox="0 0 62 62" fill="none" xmlns="http://www.w3.org/2000/svg">
<rect width="62" height="62" rx="6" fill="white"/>
<path d="M15.8594 20.8536H19.1078C19.5671 22.8074 21.3203 24.2678 23.4119 24.2678C25.5038 24.2678 27.2571 22.8074 27.7163 20.8536H46.1406C46.6982 20.8536 47.15 20.4019 47.15 19.8443C47.15 19.2867 46.6982 18.8349 46.1406 18.8349H27.7174C27.2596 16.8791 25.5052 15.4167 23.4119 15.4167C21.3189 15.4167 19.5646 16.8791 19.1068 18.8349H15.8594C15.3018 18.8349 14.85 19.2867 14.85 19.8443C14.85 20.4019 15.3018 20.8536 15.8594 20.8536Z" fill="#000834"/>
<path d="M46.1406 29.9887H42.8921C42.4329 28.0349 40.6796 26.5745 38.588 26.5745C36.4962 26.5745 34.7428 28.0349 34.2836 29.9887H15.8594C15.3018 29.9887 14.85 30.4404 14.85 30.998C14.85 31.5556 15.3018 32.0074 15.8594 32.0074H34.2826C34.7403 33.9632 36.4947 35.4256 38.588 35.4256C40.6811 35.4256 42.4354 33.9632 42.8931 32.0074H46.1406C46.6982 32.0074 47.15 31.5556 47.15 30.998C47.15 30.4404 46.6982 29.9887 46.1406 29.9887Z" fill="#000834"/>
<path d="M46.1406 41.1503H27.7174C27.2596 39.1946 25.5052 37.7322 23.4119 37.7322C21.3189 37.7322 19.5646 39.1946 19.1068 41.1503H15.8594C15.3018 41.1503 14.85 41.6021 14.85 42.1597C14.85 42.7173 15.3018 43.1691 15.8594 43.1691H19.1078C19.5671 45.1228 21.3203 46.5833 23.4119 46.5833C25.5038 46.5833 27.2571 45.1228 27.7163 43.1691H46.1406C46.6982 43.1691 47.15 42.7173 47.15 42.1597C47.15 41.6021 46.6982 41.1503 46.1406 41.1503Z" fill="#000834"/>
</svg>
