<svg width="62" height="62" viewBox="0 0 62 62" fill="none" xmlns="http://www.w3.org/2000/svg">
<rect width="62" height="62" rx="6" fill="white"/>
<g clip-path="url(#clip0_1055_1375)">
<path d="M43.75 48H18.25C15.9068 48 14 46.0932 14 43.75V18.25C14 15.9068 15.9068 14 18.25 14H43.75C46.0932 14 48 15.9068 48 18.25V43.75C48 46.0932 46.0932 48 43.75 48ZM18.25 16.8333C17.4694 16.8333 16.8333 17.4694 16.8333 18.25V43.75C16.8333 44.5306 17.4694 45.1667 18.25 45.1667H43.75C44.5306 45.1667 45.1667 44.5306 45.1667 43.75V18.25C45.1667 17.4694 44.5306 16.8333 43.75 16.8333H18.25Z" fill="#AB8A62"/>
<path d="M39.8542 19.6667H22.1459C20.7788 19.6667 19.6667 20.7788 19.6667 22.1459V27.1042C19.6667 28.4713 20.7788 29.5834 22.1459 29.5834H39.8542C41.2213 29.5834 42.3334 28.4713 42.3334 27.1042V22.1459C42.3334 20.7788 41.2213 19.6667 39.8542 19.6667Z" fill="#42A5F5"/>
<path d="M31 14H18.25C15.9068 14 14 15.9068 14 18.25V43.75C14 46.0932 15.9068 48 18.25 48H31V45.1667H18.25C17.4694 45.1667 16.8333 44.5306 16.8333 43.75V18.25C16.8333 17.4694 17.4694 16.8333 18.25 16.8333H31V14Z" fill="#65676B"/>
<path d="M31.0001 19.6667H22.1459C20.7788 19.6667 19.6667 20.7788 19.6667 22.1459V27.1042C19.6667 28.4713 20.7788 29.5834 22.1459 29.5834H31.0001V19.6667Z" fill="#3990D5"/>
</g>
<defs>
<clipPath id="clip0_1055_1375">
<rect width="34" height="34" fill="white" transform="translate(14 14)"/>
</clipPath>
</defs>
</svg>
