<svg width="62" height="62" viewBox="0 0 62 62" fill="none" xmlns="http://www.w3.org/2000/svg">
<rect width="62" height="62" rx="6" fill="white"/>
<path d="M33.7461 46.635C41.3379 46.635 47.4922 40.4807 47.4922 32.8889C47.4922 25.2972 41.3379 19.1428 33.7461 19.1428C26.1543 19.1428 20 25.2972 20 32.8889C20 40.4807 26.1543 46.635 33.7461 46.635Z" fill="url(#paint0_linear_1055_1340)"/>
<path d="M45.1511 37.7734H20.8464C19.4917 37.7734 18.3894 36.671 18.3894 35.3164V20.1492C18.3894 18.7945 19.4917 17.6921 20.8464 17.6921H45.1511C46.5058 17.6921 47.6082 18.7945 47.6082 20.1492V35.3164C47.6082 36.6777 46.5125 37.7734 45.1511 37.7734Z" fill="#D3E6F8"/>
<path d="M18.3961 34.4731V35.3165C18.3961 36.6712 19.4985 37.7735 20.8531 37.7735H45.1578C46.5125 37.7735 47.6149 36.6712 47.6149 35.3165V34.4731H18.3961Z" fill="white"/>
<path d="M36.1333 37.7734H29.8778V41.9504H36.1333V37.7734Z" fill="white"/>
<path d="M40.0778 44.3079H25.9266V43.1391C25.9266 42.4817 26.4579 41.9504 27.1153 41.9504H38.8891C39.5466 41.9504 40.0778 42.4817 40.0778 43.1391V44.3079Z" fill="white"/>
<path d="M37.5543 44.3079H40.0778V43.1391C40.0778 42.4817 39.5465 41.9504 38.8891 41.9504H37.5543V44.3079Z" fill="#D3E6F8"/>
<path d="M45.0848 37.9262C46.4794 37.9262 47.6083 36.7973 47.6083 35.4028V34.2805H45.0848V37.9262Z" fill="#D3E6F8"/>
<path d="M45.0847 17.6921C46.4792 17.6921 47.6082 18.821 47.6082 20.2156V34.473H45.0847V17.6921Z" fill="#A4CFF2"/>
<path d="M36.1265 37.7734H34.639V41.8508H36.1265V37.7734Z" fill="#D3E6F8"/>
<path d="M45.1512 38.1651H20.8465C19.2793 38.1651 17.9977 36.8901 17.9977 35.3163V20.1491C17.9977 18.5819 19.2727 17.3003 20.8465 17.3003H45.1512C46.7184 17.3003 48 18.5753 48 20.1491V35.3163C48 36.8901 46.725 38.1651 45.1512 38.1651ZM20.8531 18.0772C19.711 18.0772 18.7813 19.0069 18.7813 20.1491V35.3163C18.7813 36.4585 19.711 37.3815 20.8465 37.3815H45.1512C46.2934 37.3815 47.2164 36.4519 47.2164 35.3163V20.1491C47.2164 19.0069 46.2867 18.0839 45.1512 18.0839H20.8531V18.0772Z" fill="#4C4372"/>
<path d="M36.1266 42.3421H29.8712C29.6587 42.3421 29.4794 42.1695 29.4794 41.9503V37.7734C29.4794 37.5609 29.652 37.3816 29.8712 37.3816H36.1266C36.3391 37.3816 36.5184 37.5542 36.5184 37.7734V41.9503C36.5184 42.1695 36.3458 42.3421 36.1266 42.3421ZM30.263 41.5652H35.7348V38.1652H30.263V41.5652Z" fill="#4C4372"/>
<path d="M40.0778 44.6996H25.9266C25.7141 44.6996 25.5348 44.527 25.5348 44.3078V43.1391C25.5348 42.2691 26.2453 41.5586 27.1153 41.5586H38.8891C39.759 41.5586 40.4696 42.2691 40.4696 43.1391V44.3078C40.4629 44.527 40.2903 44.6996 40.0778 44.6996ZM26.3184 43.9227H39.686V43.1457C39.686 42.7074 39.3274 42.3488 38.8891 42.3488H27.1153C26.677 42.3488 26.3184 42.7074 26.3184 43.1457V43.9227Z" fill="#4C4372"/>
<path d="M47.1301 34.8646H18.5621C18.3496 34.8646 18.1703 34.692 18.1703 34.4729C18.1703 34.2537 18.3429 34.0811 18.5621 34.0811H47.1234C47.3359 34.0811 47.5152 34.2537 47.5152 34.4729C47.5152 34.692 47.3426 34.8646 47.1301 34.8646Z" fill="#4C4372"/>
<path d="M14.3918 29.6719V27.8258C14.3918 27.1285 14.9629 26.5508 15.6668 26.5508H22.1347C22.832 26.5508 23.4097 27.1219 23.4097 27.8258V43.0395C23.4097 43.7367 22.8386 44.3145 22.1347 44.3145H15.6601C14.9629 44.3145 14.3851 43.7434 14.3851 43.0395V31.2324V29.6719H14.3918Z" fill="#FD919E"/>
<path d="M23.443 29.0476H14.3918V40.6023H23.443V29.0476Z" fill="white"/>
<path d="M21.6633 29.1474H23.4098V27.547C23.4098 27.0224 22.9848 26.604 22.4668 26.604H21.67V29.1474H21.6633Z" fill="#E8677D"/>
<path d="M21.6633 44.308H22.1083C22.8254 44.308 23.4098 43.7236 23.4098 43.0064V40.7619C23.4098 40.6756 23.3368 40.6025 23.2504 40.6025H21.6633V44.308Z" fill="#E8677D"/>
<path d="M23.4098 29.1472H21.6633V40.5957H23.4098V29.1472Z" fill="#D3E6F8"/>
<path d="M18.8982 43.1844C19.331 43.1844 19.6818 42.8335 19.6818 42.4008C19.6818 41.968 19.331 41.6172 18.8982 41.6172C18.4655 41.6172 18.1146 41.968 18.1146 42.4008C18.1146 42.8335 18.4655 43.1844 18.8982 43.1844Z" fill="#E8677D"/>
<path d="M23.3567 29.4328H14.4383C14.2258 29.4328 14.0465 29.2601 14.0465 29.041C14.0465 28.8218 14.2192 28.6492 14.4383 28.6492H23.3567C23.5692 28.6492 23.7485 28.8218 23.7485 29.041C23.7485 29.2601 23.5758 29.4328 23.3567 29.4328Z" fill="#4C4372"/>
<path d="M23.3567 40.9875H14.4383C14.2258 40.9875 14.0465 40.8148 14.0465 40.5957C14.0465 40.3832 14.2192 40.2039 14.4383 40.2039H23.3567C23.5692 40.2039 23.7485 40.3765 23.7485 40.5957C23.7485 40.8148 23.5758 40.9875 23.3567 40.9875Z" fill="#4C4372"/>
<path d="M18.9008 43.5772C18.2567 43.5772 17.7321 43.0526 17.7321 42.4085C17.7321 41.7644 18.2567 41.2397 18.9008 41.2397C19.5449 41.2397 20.0696 41.7644 20.0696 42.4085C20.0696 43.0526 19.5449 43.5772 18.9008 43.5772ZM18.9008 42.0101C18.6883 42.0101 18.509 42.1827 18.509 42.4019C18.509 42.6144 18.6817 42.7937 18.9008 42.7937C19.1133 42.7937 19.2926 42.621 19.2926 42.4019C19.2926 42.1894 19.1133 42.0101 18.9008 42.0101Z" fill="#4C4372"/>
<path d="M22.1348 44.6995H15.6602C14.7438 44.6995 14 43.9558 14 43.0394V27.8257C14 26.9093 14.7438 26.1655 15.6602 26.1655H22.1281C23.0445 26.1655 23.7883 26.9093 23.7883 27.8257V43.0394C23.7949 43.9491 23.0512 44.6995 22.1348 44.6995ZM15.6602 26.9358C15.1754 26.9358 14.777 27.3343 14.777 27.819V43.0327C14.777 43.5175 15.1754 43.9159 15.6602 43.9159H22.1281C22.6129 43.9159 23.0113 43.5175 23.0113 43.0327V27.8257C23.0113 27.3409 22.6129 26.9425 22.1281 26.9425H15.6602V26.9358Z" fill="#4C4372"/>
<defs>
<linearGradient id="paint0_linear_1055_1340" x1="33.7461" y1="19.1428" x2="33.7461" y2="46.635" gradientUnits="userSpaceOnUse">
<stop stop-color="#F1F1F1"/>
<stop offset="1" stop-color="#3F4173"/>
</linearGradient>
</defs>
</svg>
