<svg width="62" height="62" viewBox="0 0 62 62" fill="none" xmlns="http://www.w3.org/2000/svg">
<rect width="62" height="62" rx="6" fill="white"/>
<path fill-rule="evenodd" clip-rule="evenodd" d="M42.8619 44.4668C41.4941 45.6659 39.9607 46.6436 38.2862 47.3837C35.9937 48.3964 33.5509 48.9102 31.0254 48.9102C28.5985 48.9102 26.2433 48.4344 24.0253 47.4963C21.8838 46.5906 19.9609 45.2942 18.3099 43.6433C16.6591 41.9922 15.3625 40.0694 14.4569 37.9279C13.5189 35.71 13.043 33.3547 13.043 30.9278C13.043 28.5009 13.5188 26.1457 14.4568 23.9277C15.3625 21.7863 16.659 19.8633 18.3098 18.2123C19.9609 16.5615 21.8837 15.2649 24.0252 14.3593C26.2432 13.421 28.5984 12.9454 31.0253 12.9454C33.4522 12.9454 35.8075 13.421 38.0253 14.3592C40.1668 15.2649 42.0897 16.5614 43.7407 18.2122C45.3916 19.8633 46.6881 21.7862 47.5937 23.9276C48.532 26.1456 49.0076 28.5008 49.0076 30.9277H46.1865C46.1865 22.5678 39.3851 15.7664 31.0252 15.7664C22.6653 15.7664 15.8641 22.5679 15.8641 30.9277C15.8641 39.2875 22.6656 46.089 31.0254 46.089C34.7613 46.089 38.2603 44.7635 41.023 42.3284L42.8619 44.4668Z" fill="#F9AB00"/>
<path fill-rule="evenodd" clip-rule="evenodd" d="M38.6758 35.345L31.0253 30.9278L23.3748 35.345L31.0253 39.762L38.6758 35.345Z" fill="#F9AB00"/>
<path fill-rule="evenodd" clip-rule="evenodd" d="M38.6759 35.345V26.5108L31.0254 22.0937V30.9278L38.6759 35.345Z" fill="#F9AB00"/>
<path fill-rule="evenodd" clip-rule="evenodd" d="M31.0253 30.9278V22.0937L23.3748 26.5108V35.345L31.0253 30.9278Z" fill="#F9AB00"/>
<path fill-rule="evenodd" clip-rule="evenodd" d="M31.0253 30.7315C30.9914 30.7315 30.9575 30.7403 30.9271 30.7578L23.2766 35.175C23.2159 35.21 23.1785 35.2749 23.1785 35.3451C23.1785 35.4152 23.2158 35.48 23.2766 35.515L30.9271 39.932C30.9878 39.967 31.0627 39.967 31.1234 39.932L38.774 35.515C38.8347 35.48 38.8721 35.4151 38.8721 35.3451C38.8721 35.2749 38.8348 35.2101 38.774 35.175L31.1234 30.7578C31.0931 30.7403 31.0591 30.7315 31.0253 30.7315ZM23.7673 35.345L31.0253 31.1544L38.2832 35.345L31.0253 39.5352L23.7673 35.345Z" fill="#E3A238"/>
<path fill-rule="evenodd" clip-rule="evenodd" d="M31.0254 21.8974C30.9915 21.8974 30.9576 21.9062 30.9272 21.9238C30.8666 21.9588 30.8291 22.0236 30.8291 22.0937V30.9279C30.8291 30.998 30.8665 31.0628 30.9272 31.0978L38.5778 35.515C38.6385 35.55 38.7133 35.55 38.7741 35.515C38.8348 35.48 38.8722 35.4152 38.8722 35.345V26.5109C38.8722 26.4407 38.8348 26.376 38.7741 26.3409L31.1235 21.9238C31.0932 21.9062 31.0592 21.8974 31.0254 21.8974ZM31.2217 30.8145V22.4336L38.4796 26.6242V35.005L31.2217 30.8145Z" fill="#E3A238"/>
<path fill-rule="evenodd" clip-rule="evenodd" d="M31.0253 21.8974C30.9913 21.8974 30.9575 21.9062 30.9271 21.9238L23.2766 26.3409C23.2159 26.376 23.1785 26.4407 23.1785 26.5109V35.345C23.1785 35.4152 23.2158 35.48 23.2766 35.515C23.3373 35.55 23.4122 35.55 23.4729 35.515L31.1234 31.0978C31.1841 31.0628 31.2216 30.9979 31.2216 30.9279V22.0937C31.2216 22.0236 31.1842 21.9588 31.1234 21.9238C31.0931 21.9062 31.0591 21.8974 31.0253 21.8974ZM23.5711 26.6243L30.829 22.4337V30.8146L23.5711 35.0051V26.6243Z" fill="#E3A238"/>
<path fill-rule="evenodd" clip-rule="evenodd" d="M42.8269 44.5351L44.0645 45.9744L44.6993 40.8645H39.6707L40.9532 42.3562L42.8269 44.5351Z" fill="#86BD5A"/>
</svg>
