<svg width="62" height="62" viewBox="0 0 62 62" fill="none" xmlns="http://www.w3.org/2000/svg">
<rect width="62" height="62" rx="6" fill="white"/>
<g clip-path="url(#clip0_1055_1413)">
<path d="M47.7331 41.9066L47.7383 42.7121C47.7383 43.0521 47.5134 43.3895 47.0688 43.6484L41.1371 47.072C40.2531 47.5846 38.8094 47.5846 37.9254 47.0667C37.4834 46.813 37.2637 46.4783 37.2637 46.1409L37.2611 45.6047C37.235 45.5916 37.2088 45.5786 37.1853 45.5629C36.7747 45.3249 36.568 45.011 36.568 44.6972L36.5654 43.8629C36.5654 43.8812 36.568 43.9021 36.5706 43.9204C36.5419 43.5804 36.7485 43.2352 37.1983 42.9763C37.371 42.8769 37.5645 42.801 37.7737 42.7409L37.7711 41.9824C37.7711 41.9903 37.7711 41.9955 37.7737 42.0007C37.7633 41.6503 37.9908 41.2972 38.4563 41.0278C39.1834 40.6094 40.2662 40.5283 41.1319 40.7793C41.2208 40.6983 41.3228 40.625 41.4431 40.5544C42.267 40.081 43.5956 40.081 44.4116 40.557C44.4743 40.591 44.5293 40.6303 44.5816 40.6695C45.4106 40.4655 46.4019 40.5623 47.074 40.952C47.5265 41.2161 47.7462 41.5613 47.7331 41.9066Z" fill="#D4DAE8"/>
<path d="M42.62 25.6286L44.6522 29.1122L44.9006 28.9501L45.3505 28.6912L46.9589 31.4792L47.7383 31.147L47.7331 33.0039L47.2859 33.2628L40.1772 29.1593L40.1929 24.0933L40.6402 23.8318L41.8328 26.1359L42.1728 25.8875L42.62 25.6286Z" fill="#D4DAE8"/>
<path d="M47.3932 35.4259L31.523 44.5876C31.1725 44.789 30.6076 44.789 30.2598 44.5876L20.2141 39.1842L20.2089 38.125L19.4739 37.6987L19.4687 35.1409L14.829 37.8321C14.7689 37.8661 14.7139 37.8687 14.6773 37.8478L14.3347 37.649C14.2955 37.6255 14.2745 37.581 14.2745 37.513L14.2615 33.0642C14.2615 32.9335 14.353 32.7687 14.4707 32.7007L19.453 29.8264L19.4399 26.0786C19.4399 25.6758 19.7224 25.1867 20.0729 24.9827L35.943 15.821C36.1182 15.719 36.2804 15.7086 36.3955 15.7766L37.1173 16.1976L37.1225 16.2002C37.2402 16.2656 37.3135 16.4069 37.3135 16.6109L37.3187 18.3056L43.7787 14.5761C43.8389 14.5395 43.8964 14.5369 43.9382 14.5604L44.3018 14.7696V14.7723C44.3436 14.7958 44.3672 14.8455 44.3672 14.9161L44.3802 19.6578C44.3829 19.799 44.2809 19.9743 44.1579 20.0448L40.0884 22.3621L38.4799 25.1501L38.4747 23.2958H38.4721L38.4773 25.1501L38.1138 24.9409L38.1085 23.5129L37.3344 23.9732L37.3475 28.2284L47.3958 34.066C47.571 34.1705 47.6573 34.3039 47.6547 34.4399L47.6573 35.0572C47.6573 35.188 47.571 35.3239 47.3932 35.4259Z" fill="#D4DAE8"/>
<path d="M37.1288 16.2038C37.0143 16.1362 37.1134 16.2697 36.9365 16.3737L21.0676 25.535C20.7163 25.7379 20.4353 26.2271 20.4353 26.6304L20.2087 38.1247L19.475 37.698L19.4412 26.078C19.4412 25.6747 19.7222 25.1855 20.0734 24.9826L35.9423 15.8213C36.1193 15.7199 36.2806 15.7095 36.3951 15.7771L37.1288 16.2038Z" fill="#BAC1CE"/>
<path d="M36.6769 16.247C37.0275 16.0446 37.3125 16.207 37.3136 16.6098L37.3465 28.2291L20.2077 38.1241L20.1748 26.5049C20.1737 26.1021 20.4568 25.6117 20.8073 25.4093L36.6769 16.247Z" fill="#5B5E71"/>
<path d="M20.9553 26.5026C20.9548 26.3781 21.0885 26.1481 21.1975 26.0852L36.5347 17.2302L36.5646 27.7791L20.9843 36.7743L20.9553 26.5026Z" fill="white"/>
<path d="M20.2087 38.1243L20.2139 39.1833L30.2598 44.5863C30.6085 44.7892 31.1731 44.7892 31.5244 44.5863L47.3933 35.425C47.5702 35.3235 47.6587 35.1883 47.6587 35.0556L47.6535 34.4348C47.6535 34.5675 47.565 34.7002 47.3881 34.8017L20.2087 38.1243Z" fill="#CAD0DD"/>
<path d="M20.21 38.1236L30.2561 43.9618C30.6043 44.1641 31.1706 44.1641 31.5211 43.9618L47.3891 34.8004C47.7412 34.5971 47.7431 34.2691 47.3949 34.0667L37.3487 28.2285L20.21 38.1236Z" fill="#E4E8F4"/>
<path d="M23.0603 40.0901L23.0591 40.5118L23.4261 40.7237L23.4273 40.302L23.0603 40.0901Z" fill="#BAC1CE"/>
<path d="M22.1225 39.5488L22.1213 39.9705L22.7737 40.3472L22.7749 39.9255L22.1225 39.5488Z" fill="#BAC1CE"/>
<path d="M21.4978 39.188L21.4966 39.6097L21.8636 39.8216L21.8648 39.3999L21.4978 39.188Z" fill="#BAC1CE"/>
<path d="M20.8445 38.8108L20.8433 39.2325L21.2103 39.4444L21.2115 39.0227L20.8445 38.8108Z" fill="#BAC1CE"/>
<path d="M35.6499 30.9601C35.622 30.9762 35.6219 31.0039 35.6496 31.02L36.3668 31.4368C36.3945 31.4529 36.4422 31.4529 36.4701 31.4368L37.19 31.0212C37.2199 31.0039 37.2181 30.9774 37.1904 30.9613L36.4732 30.5445C36.4454 30.5284 36.3997 30.5272 36.3698 30.5445L35.6499 30.9601Z" fill="#525566"/>
<path d="M34.3897 31.6877C34.3598 31.705 34.3616 31.7315 34.3894 31.7476L35.1066 32.1644C35.1343 32.1805 35.18 32.1816 35.2099 32.1644L35.9298 31.7487C35.9577 31.7326 35.9579 31.705 35.9301 31.6889L35.213 31.2721C35.1852 31.256 35.1375 31.256 35.1096 31.2721L34.3897 31.6877Z" fill="#525566"/>
<path d="M33.1275 32.4166C33.0996 32.4327 33.0994 32.4603 33.1271 32.4764L33.8443 32.8932C33.8721 32.9093 33.9198 32.9094 33.9477 32.8932L34.6696 32.4765C34.6975 32.4603 34.6956 32.4339 34.6679 32.4177L33.9507 32.001C33.923 31.9848 33.8773 31.9837 33.8494 31.9998L33.1275 32.4166Z" fill="#525566"/>
<path d="M36.3734 32.032C36.3434 32.0493 36.3433 32.0746 36.373 32.0919L37.0882 32.5075C37.116 32.5237 37.1617 32.5248 37.1916 32.5075L38.4738 31.7673C38.5037 31.75 38.5019 31.7235 38.4741 31.7074L37.7589 31.2918C37.7292 31.2745 37.6855 31.2745 37.6556 31.2918L36.3734 32.032Z" fill="#525566"/>
<path d="M35.0933 32.7711C35.0654 32.7872 35.0633 32.8137 35.093 32.831L35.8082 33.2466C35.8359 33.2627 35.8836 33.2627 35.9115 33.2466L36.6314 32.831C36.6613 32.8137 36.6595 32.7872 36.6318 32.7711L35.9166 32.3555C35.8868 32.3382 35.8431 32.3382 35.8132 32.3555L35.0933 32.7711Z" fill="#525566"/>
<path d="M33.805 33.5149C33.7771 33.531 33.7749 33.5575 33.8047 33.5748L34.5199 33.9904C34.5476 34.0065 34.5953 34.0065 34.6232 33.9904L35.3451 33.5736C35.373 33.5575 35.3712 33.531 35.3434 33.5149L34.6282 33.0993C34.5985 33.082 34.5548 33.082 34.5269 33.0981L33.805 33.5149Z" fill="#525566"/>
<path d="M32.5169 34.2586C32.489 34.2748 32.4869 34.3012 32.5166 34.3185L33.2318 34.7341C33.2595 34.7503 33.3072 34.7503 33.3351 34.7341L34.057 34.3174C34.0849 34.3012 34.0851 34.2736 34.0573 34.2575L33.3421 33.8419C33.3124 33.8246 33.2667 33.8258 33.2388 33.8419L32.5169 34.2586Z" fill="#525566"/>
<path d="M31.2286 35.0023C31.2007 35.0184 31.1985 35.0449 31.2282 35.0622L31.9434 35.4778C31.9712 35.4939 32.0189 35.4939 32.0468 35.4778L32.7687 35.061C32.7966 35.0449 32.7967 35.0173 32.769 35.0012L32.0538 34.5855C32.0241 34.5683 31.9784 34.5694 31.9505 34.5855L31.2286 35.0023Z" fill="#525566"/>
<path d="M29.9425 35.745C29.9125 35.7623 29.9124 35.7876 29.9421 35.8049L30.6573 36.2205C30.685 36.2367 30.7308 36.2378 30.7607 36.2205L31.4806 35.8049C31.5085 35.7888 31.5086 35.7612 31.4809 35.745L30.7657 35.3294C30.736 35.3121 30.6902 35.3133 30.6623 35.3294L29.9425 35.745Z" fill="#525566"/>
<path d="M28.6541 36.4887C28.6242 36.506 28.6241 36.5313 28.6538 36.5486L29.369 36.9642C29.3967 36.9803 29.4424 36.9815 29.4723 36.9642L30.1922 36.5486C30.2201 36.5324 30.2203 36.5048 30.1926 36.4887L29.4774 36.0731C29.4476 36.0558 29.4019 36.0569 29.374 36.0731L28.6541 36.4887Z" fill="#525566"/>
<path d="M27.366 37.2325C27.3361 37.2498 27.336 37.2751 27.3657 37.2924L28.0809 37.708C28.1086 37.7242 28.1543 37.7253 28.1843 37.708L28.9041 37.2924C28.9341 37.2751 28.9322 37.2487 28.9045 37.2325L28.1893 36.8169C28.1596 36.7996 28.1158 36.7996 28.0859 36.8169L27.366 37.2325Z" fill="#525566"/>
<path d="M31.8672 33.1442C31.8373 33.1615 31.8392 33.188 31.8669 33.2041L32.5841 33.6209C32.6118 33.637 32.6575 33.6381 32.6874 33.6209L33.4073 33.2052C33.4372 33.188 33.4354 33.1615 33.4077 33.1454L32.6905 32.7286C32.6627 32.7125 32.617 32.7113 32.5871 32.7286L31.8672 33.1442Z" fill="#525566"/>
<path d="M30.6048 33.873C30.5769 33.8891 30.5767 33.9167 30.6044 33.9328L31.3216 34.3496C31.3494 34.3657 31.3971 34.3657 31.425 34.3496L32.1469 33.9328C32.1748 33.9167 32.1749 33.8891 32.1472 33.873L31.43 33.4562C31.4023 33.4401 31.3546 33.4401 31.3267 33.4562L30.6048 33.873Z" fill="#525566"/>
<path d="M29.3445 34.6005C29.3166 34.6166 29.3165 34.6443 29.3442 34.6604L30.0614 35.0772C30.0891 35.0933 30.1368 35.0933 30.1647 35.0772L30.8846 34.6615C30.9145 34.6443 30.9127 34.6178 30.8849 34.6017L30.1678 34.1849C30.14 34.1688 30.0943 34.1676 30.0644 34.1849L29.3445 34.6005Z" fill="#525566"/>
<path d="M28.0843 35.3281C28.0544 35.3454 28.0562 35.3718 28.084 35.388L28.8011 35.8047C28.8289 35.8209 28.8746 35.822 28.9045 35.8047L29.6244 35.3891C29.6523 35.373 29.6524 35.3454 29.6247 35.3293L28.9075 34.9125C28.8798 34.8964 28.8321 34.8964 28.8042 34.9125L28.0843 35.3281Z" fill="#525566"/>
<path d="M26.8221 36.057C26.7941 36.0731 26.794 36.1007 26.8217 36.1168L27.5389 36.5336C27.5666 36.5497 27.6143 36.5497 27.6423 36.5336L28.3641 36.1168C28.3921 36.1007 28.3902 36.0742 28.3625 36.0581L27.6453 35.6413C27.6176 35.6252 27.5719 35.6241 27.5439 35.6402L26.8221 36.057Z" fill="#525566"/>
<path d="M25.5618 36.7846C25.5319 36.8019 25.5338 36.8283 25.5615 36.8445L26.2787 37.2612C26.3064 37.2774 26.3521 37.2785 26.382 37.2612L27.1019 36.8456C27.1318 36.8283 27.13 36.8019 27.1022 36.7857L26.3851 36.369C26.3573 36.3529 26.3116 36.3517 26.2817 36.369L25.5618 36.7846Z" fill="#525566"/>
<path d="M24.2994 37.5133C24.2714 37.5294 24.2713 37.5571 24.299 37.5732L25.0162 37.99C25.0439 38.0061 25.0917 38.0061 25.1196 37.99L25.8414 37.5732C25.8693 37.5571 25.8695 37.5295 25.8418 37.5133L25.1246 37.0966C25.0969 37.0804 25.0491 37.0804 25.0212 37.0966L24.2994 37.5133Z" fill="#525566"/>
<path d="M25.5853 38.2605C25.5574 38.2766 25.5552 38.3031 25.5849 38.3204L26.3001 38.736C26.3279 38.7521 26.3756 38.7521 26.4035 38.736L27.6877 37.9945C27.7176 37.9773 27.7158 37.9508 27.688 37.9347L26.9728 37.5191C26.9431 37.5018 26.8994 37.5018 26.8695 37.5191L25.5853 38.2605Z" fill="#525566"/>
<path d="M37.087 33.1074C37.0591 33.1235 37.0569 33.15 37.0866 33.1673L37.8018 33.5829C37.8316 33.6002 37.8773 33.599 37.9052 33.5829L39.7577 32.5133C39.7876 32.4961 39.7878 32.4708 39.7581 32.4535L39.0429 32.0379C39.0132 32.0206 38.9694 32.0206 38.9395 32.0379L37.087 33.1074Z" fill="#525566"/>
<path d="M35.6971 33.9099C35.6692 33.926 35.667 33.9525 35.6967 33.9698L36.4119 34.3854C36.4417 34.4027 36.4874 34.4015 36.5153 34.3854L37.2372 33.9686C37.2651 33.9525 37.2652 33.9272 37.2355 33.9099L36.5203 33.4943C36.4906 33.477 36.4469 33.477 36.419 33.4931L35.6971 33.9099Z" fill="#525566"/>
<path d="M34.4368 34.6376C34.4069 34.6548 34.4068 34.6802 34.4365 34.6974L35.1517 35.1131C35.1814 35.1303 35.2251 35.1303 35.255 35.1131L35.9749 34.6974C36.0048 34.6802 36.005 34.6548 35.9753 34.6376L35.2601 34.2219C35.2304 34.2047 35.1866 34.2047 35.1567 34.2219L34.4368 34.6376Z" fill="#525566"/>
<path d="M33.1744 35.3663C33.1465 35.3824 33.1443 35.4089 33.174 35.4262L33.8892 35.8418C33.919 35.8591 33.9647 35.8579 33.9926 35.8418L34.7145 35.425C34.7424 35.4089 34.7445 35.3824 34.7148 35.3652L33.9996 34.9495C33.9699 34.9323 33.9242 34.9334 33.8963 34.9495L33.1744 35.3663Z" fill="#525566"/>
<path d="M31.9141 36.0939C31.8862 36.11 31.8841 36.1365 31.9138 36.1537L32.629 36.5693C32.6587 36.5866 32.7044 36.5855 32.7323 36.5693L33.4522 36.1537C33.4821 36.1365 33.4823 36.1111 33.4526 36.0939L32.7374 35.6782C32.7076 35.661 32.6639 35.661 32.634 35.6782L31.9141 36.0939Z" fill="#525566"/>
<path d="M30.6539 36.8215C30.624 36.8387 30.6238 36.8641 30.6535 36.8813L31.3687 37.2969C31.3985 37.3142 31.4422 37.3142 31.4721 37.297L32.192 36.8813C32.2199 36.8652 32.222 36.8387 32.1923 36.8215L31.4771 36.4058C31.4474 36.3886 31.4017 36.3897 31.3738 36.4058L30.6539 36.8215Z" fill="#525566"/>
<path d="M29.3917 37.5503C29.3637 37.5664 29.3616 37.5929 29.3913 37.6102L30.1065 38.0258C30.1362 38.0431 30.182 38.0419 30.2099 38.0258L30.9318 37.609C30.9597 37.5929 30.9598 37.5676 30.9301 37.5503L30.2149 37.1347C30.1852 37.1174 30.1415 37.1174 30.1135 37.1335L29.3917 37.5503Z" fill="#525566"/>
<path d="M26.869 39.0065C26.841 39.0227 26.8389 39.0491 26.8686 39.0664L27.5838 39.482C27.6135 39.4993 27.6593 39.4982 27.6872 39.482L29.6953 38.3227C29.7252 38.3054 29.7253 38.2801 29.6956 38.2628L28.9804 37.8472C28.9507 37.8299 28.907 37.8299 28.877 37.8472L26.869 39.0065Z" fill="#525566"/>
<path d="M38.325 33.8269C38.2971 33.843 38.295 33.8695 38.3247 33.8868L39.0399 34.3024C39.0696 34.3197 39.1153 34.3185 39.1432 34.3024L40.9958 33.2328C41.0257 33.2156 41.0258 33.1902 40.9961 33.173L40.2809 32.7573C40.2512 32.7401 40.2075 32.7401 40.1775 32.7573L38.325 33.8269Z" fill="#525566"/>
<path d="M38.5846 34.6252L31.5048 38.7131C31.476 38.7288 31.4315 38.7314 31.4002 38.7131L30.6861 38.2972C30.6548 38.2815 30.6574 38.2528 30.6861 38.2371L37.766 34.1492C37.7948 34.1336 37.8392 34.1309 37.8706 34.1492L38.5846 34.5651C38.616 34.5834 38.6134 34.6095 38.5846 34.6252Z" fill="#525566"/>
<path d="M25.8407 37.7013L25.1193 38.1167C25.0936 38.1328 25.0453 38.1328 25.0163 38.1167L24.2981 37.7013C24.2852 37.6916 24.2788 37.6819 24.2788 37.6723V37.5435C24.2788 37.5531 24.2852 37.566 24.2981 37.5724L25.0163 37.9911C25.0453 38.0072 25.0903 38.0072 25.1193 37.9911L25.8407 37.5724C25.8568 37.566 25.8633 37.5531 25.8633 37.5435V37.6691C25.8633 37.6819 25.8568 37.6916 25.8407 37.7013Z" fill="#3F434F"/>
<path d="M25.5606 36.97C25.5477 36.9636 25.5413 36.9539 25.5413 36.941V36.8154C25.5413 36.8251 25.5477 36.8348 25.5606 36.8444L26.2787 37.2599C26.3077 37.276 26.3528 37.2792 26.3818 37.2599L27.1032 36.8444C27.1161 36.838 27.1225 36.8251 27.1225 36.8154V36.9443C27.1225 36.9539 27.1161 36.9636 27.1032 36.9732L26.3818 37.3887C26.3528 37.4048 26.3077 37.4048 26.2787 37.3887L25.5606 36.97Z" fill="#3F434F"/>
<path d="M28.0853 35.5145C28.0692 35.508 28.0627 35.4952 28.0627 35.4855V35.3567C28.0627 35.3696 28.0692 35.3792 28.0853 35.3889L28.8002 35.8043C28.8292 35.8204 28.8743 35.8204 28.9033 35.8043L29.6247 35.3889C29.6375 35.3824 29.644 35.3696 29.644 35.3599L29.6472 35.4855C29.6472 35.4984 29.6375 35.508 29.6247 35.5177L28.9033 35.9331C28.8743 35.9492 28.8292 35.9492 28.8002 35.9331L28.0853 35.5145Z" fill="#3F434F"/>
<path d="M30.7617 36.2198L31.4798 35.8044C31.4959 35.7979 31.5024 35.785 31.5024 35.7754V35.901C31.5024 35.9139 31.4959 35.9235 31.4798 35.9332L30.7617 36.3486C30.7327 36.3647 30.6844 36.3647 30.6586 36.3486L29.9437 35.9332C29.9276 35.9235 29.9211 35.9139 29.9211 35.901V35.7754C29.9211 35.785 29.9276 35.7947 29.9437 35.8044L30.6586 36.2198C30.6844 36.2359 30.7295 36.2391 30.7617 36.2198Z" fill="#3F434F"/>
<path d="M30.8003 39.1052L30.8035 39.2276C30.8035 39.2405 30.7938 39.2501 30.781 39.2566L28.926 40.329C28.897 40.3451 28.8519 40.3451 28.8229 40.329L28.108 39.9136C28.0919 39.9039 28.0854 39.8942 28.0854 39.8846V39.7558C28.0854 39.7654 28.0919 39.7783 28.108 39.7848L28.8229 40.2002C28.8519 40.2195 28.897 40.2163 28.926 40.2002L30.781 39.131C30.7906 39.1213 30.8003 39.1149 30.8003 39.1052Z" fill="#3F434F"/>
<path d="M30.6038 34.0589C30.5909 34.0525 30.5845 34.0428 30.5845 34.0299V33.9043C30.5845 33.914 30.5909 33.9237 30.6038 33.9333L31.322 34.3488C31.3509 34.3649 31.396 34.3649 31.425 34.3488L32.1464 33.9333C32.1625 33.9237 32.1689 33.914 32.1689 33.9011V34.0299C32.1689 34.0396 32.1625 34.0525 32.1464 34.0589L31.425 34.4776C31.396 34.4937 31.3509 34.4937 31.322 34.4776L30.6038 34.0589Z" fill="#3F434F"/>
<path d="M26.8228 36.2454C26.8067 36.2358 26.8003 36.2261 26.8003 36.2132V36.0876C26.8003 36.0973 26.8067 36.1102 26.8228 36.1166L27.5378 36.5321C27.5668 36.5482 27.6151 36.5482 27.6408 36.5321L28.3654 36.1166C28.3783 36.1102 28.3848 36.0973 28.3848 36.0876V36.2165C28.3848 36.2261 28.3783 36.2358 28.3654 36.2454L27.6441 36.6609C27.6151 36.677 27.5668 36.677 27.5378 36.6609L26.8228 36.2454Z" fill="#3F434F"/>
<path d="M29.3929 37.7367C29.3768 37.7302 29.3704 37.7173 29.3704 37.7077V37.5821C29.3704 37.5917 29.3768 37.6014 29.3897 37.6111L30.1078 38.0265C30.1368 38.0426 30.1819 38.0426 30.2109 38.0265L30.9323 37.6079C30.9452 37.6014 30.9516 37.5917 30.9516 37.5789V37.7077C30.9516 37.7173 30.9452 37.727 30.9323 37.7367L30.2109 38.1521C30.1819 38.1682 30.1368 38.1714 30.1078 38.1521L29.3929 37.7367Z" fill="#3F434F"/>
<path d="M29.3252 34.7577L29.322 34.6321C29.322 34.6417 29.3317 34.6514 29.3446 34.6611L30.0627 35.0765C30.0885 35.0926 30.1368 35.0926 30.1658 35.0765L30.884 34.6611C30.9 34.6514 30.9065 34.6417 30.9065 34.6321V34.7577C30.9065 34.7706 30.9 34.7802 30.884 34.7899L30.1658 35.2053C30.1368 35.2214 30.0885 35.2214 30.0627 35.2053L29.3446 34.7867C29.3317 34.7802 29.3252 34.7673 29.3252 34.7577Z" fill="#3F434F"/>
<path d="M28.1853 37.7076L28.9034 37.2922C28.9195 37.2825 28.926 37.2728 28.926 37.2632V37.3888C28.926 37.4017 28.9195 37.4113 28.9034 37.421L28.1853 37.8364C28.1563 37.8525 28.108 37.8525 28.0822 37.8364L27.3673 37.421C27.3512 37.4113 27.3447 37.4017 27.3447 37.3888V37.2632C27.3447 37.2728 27.3512 37.2825 27.3673 37.2922L28.0822 37.7076C28.108 37.7237 28.1531 37.7237 28.1853 37.7076Z" fill="#3F434F"/>
<path d="M27.6892 38.1231L26.4042 38.8638C26.3753 38.8799 26.327 38.8799 26.3012 38.8638L25.5863 38.4484C25.5702 38.4387 25.5637 38.4291 25.5637 38.4194V38.2906C25.5637 38.3002 25.5702 38.3131 25.5863 38.3196L26.3012 38.735C26.327 38.7511 26.3753 38.7511 26.4042 38.735L27.6892 37.9943C27.7021 37.9847 27.7085 37.975 27.7085 37.9653V38.0909C27.7085 38.1038 27.7021 38.1135 27.6892 38.1231Z" fill="#3F434F"/>
<path d="M29.3703 37.0925L28.6554 36.6771C28.6393 36.6674 28.6328 36.6578 28.6328 36.6449V36.5193C28.6328 36.5289 28.6393 36.5386 28.6554 36.5483L29.3703 36.9637C29.3961 36.9798 29.4411 36.9798 29.4734 36.9637L30.1915 36.5483C30.2076 36.5418 30.2141 36.5289 30.2141 36.5193V36.6449C30.2141 36.6578 30.2076 36.6674 30.1915 36.6771L29.4734 37.0925C29.4444 37.1086 29.3961 37.1086 29.3703 37.0925Z" fill="#3F434F"/>
<path d="M29.6955 38.4515L27.6859 39.6109C27.6602 39.627 27.6151 39.627 27.5829 39.6109L26.868 39.1922C26.8551 39.1858 26.8486 39.1761 26.8486 39.1632V39.0376C26.8486 39.0473 26.8551 39.0569 26.868 39.0666L27.5829 39.482C27.6151 39.4981 27.6602 39.4981 27.6859 39.482L29.6955 38.3227C29.7116 38.313 29.7181 38.3034 29.7181 38.2937V38.4193C29.7181 38.429 29.7116 38.4418 29.6955 38.4515Z" fill="#3F434F"/>
<path d="M31.3703 37.4243L30.6554 37.0089C30.6393 36.9992 30.6328 36.9896 30.6328 36.9799V36.8511C30.6328 36.8607 30.6393 36.8736 30.6521 36.8801L31.3703 37.2955C31.3993 37.3148 31.4411 37.3148 31.4733 37.2955L32.1915 36.8801C32.2076 36.8736 32.2141 36.8607 32.2141 36.8511V36.9799C32.2141 36.9896 32.2076 36.9992 32.1915 37.0089L31.4733 37.4243C31.4411 37.4404 31.3993 37.4404 31.3703 37.4243Z" fill="#3F434F"/>
<path d="M33.1285 32.6031C33.1124 32.5967 33.106 32.5838 33.106 32.5741V32.4453C33.106 32.4582 33.1124 32.4679 33.1285 32.4775L33.8434 32.893C33.8724 32.9091 33.9207 32.9091 33.9465 32.893L34.6679 32.4775C34.684 32.4679 34.6904 32.4582 34.6904 32.4485V32.5741C34.6904 32.587 34.684 32.5967 34.6711 32.6031L33.9465 33.0218C33.9207 33.0379 33.8724 33.0379 33.8434 33.0218L33.1285 32.6031Z" fill="#3F434F"/>
<path d="M35.1511 35.2407L34.4361 34.8253C34.4232 34.8156 34.4136 34.806 34.4136 34.7963V34.6675C34.4136 34.6771 34.4232 34.69 34.4361 34.6965L35.1511 35.1119C35.18 35.1312 35.2251 35.1312 35.2541 35.1119L35.9755 34.6965C35.9884 34.69 35.998 34.6771 35.998 34.6675V34.7931C35.998 34.806 35.9916 34.8156 35.9755 34.8253L35.2541 35.2407C35.2251 35.2568 35.1833 35.2568 35.1511 35.2407Z" fill="#3F434F"/>
<path d="M32.6293 36.6963L31.9144 36.2809C31.8983 36.2712 31.8918 36.2615 31.8918 36.2519V36.123C31.8918 36.1359 31.8983 36.1456 31.9144 36.152L32.6293 36.5707C32.6583 36.5868 32.7034 36.5868 32.7324 36.5707L33.4538 36.152C33.4634 36.1456 33.4731 36.1359 33.4731 36.1263L33.4763 36.2519C33.4763 36.2615 33.4666 36.2712 33.4538 36.2809L32.7324 36.6963C32.7034 36.7124 32.6583 36.7124 32.6293 36.6963Z" fill="#3F434F"/>
<path d="M33.3347 34.7352L34.056 34.3166C34.0721 34.3101 34.0786 34.2972 34.0786 34.2876V34.4132C34.0786 34.4261 34.0721 34.4357 34.056 34.4454L33.3347 34.8608C33.3089 34.8769 33.2606 34.8769 33.2316 34.8608L32.5167 34.4454C32.5038 34.439 32.4941 34.4261 32.4941 34.4164V34.2876C32.4941 34.3005 32.5006 34.3101 32.5167 34.3198L33.2316 34.7352C33.2606 34.7513 33.3057 34.7513 33.3347 34.7352Z" fill="#3F434F"/>
<path d="M32.0466 35.4791L32.768 35.0605C32.7841 35.054 32.7905 35.0411 32.7905 35.0315V35.1571C32.7905 35.17 32.7841 35.1796 32.768 35.1893L32.0466 35.6047C32.0208 35.6208 31.9725 35.6208 31.9435 35.6047L31.2286 35.1893C31.2157 35.1796 31.2061 35.17 31.2061 35.1603V35.0315C31.2061 35.0444 31.2125 35.054 31.2286 35.0637L31.9435 35.4791C31.9725 35.4952 32.0176 35.4952 32.0466 35.4791Z" fill="#3F434F"/>
<path d="M33.8886 35.9685L33.1737 35.5531C33.1608 35.5434 33.1543 35.5337 33.1543 35.5241L33.1511 35.3953C33.1511 35.4081 33.1608 35.4178 33.1737 35.4275L33.8886 35.8429C33.9176 35.859 33.9659 35.859 33.9917 35.8429L34.713 35.4242C34.7292 35.4178 34.7356 35.4049 34.7356 35.3953V35.5208C34.7356 35.5337 34.7292 35.5434 34.7163 35.5531L33.9917 35.9685C33.9659 35.9846 33.9208 35.9846 33.8886 35.9685Z" fill="#3F434F"/>
<path d="M34.391 31.8753C34.3749 31.8657 34.3684 31.856 34.3684 31.8464V31.7175C34.3684 31.7272 34.3749 31.7401 34.3877 31.7465L35.1059 32.1652C35.1349 32.1813 35.18 32.1813 35.209 32.1652L35.9303 31.7497C35.9432 31.7401 35.9497 31.7304 35.9497 31.7175V31.8464C35.9497 31.856 35.9432 31.8689 35.9303 31.8753L35.209 32.2908C35.18 32.3101 35.1349 32.3069 35.1059 32.2908L34.391 31.8753Z" fill="#3F434F"/>
<path d="M31.8662 33.3309C31.8534 33.3244 31.8469 33.3116 31.8469 33.3019V33.1731C31.8469 33.186 31.8534 33.1956 31.8662 33.2053L32.5844 33.6207C32.6134 33.6368 32.6585 33.6368 32.6875 33.6207L33.4088 33.2053C33.4217 33.1956 33.4282 33.186 33.4282 33.1763V33.3019C33.4282 33.3116 33.4217 33.3244 33.4088 33.3309L32.6875 33.7463C32.6585 33.7657 32.6134 33.7624 32.5844 33.7463L31.8662 33.3309Z" fill="#3F434F"/>
<path d="M34.623 33.9913L35.3444 33.5727C35.3541 33.5662 35.3637 33.5598 35.3637 33.5501L35.3669 33.6725C35.3669 33.6822 35.3605 33.6918 35.3444 33.7015L34.623 34.1169C34.5972 34.133 34.5489 34.133 34.5199 34.1169L33.805 33.7015C33.7921 33.6951 33.7825 33.6822 33.7825 33.6725V33.5437C33.7825 33.5566 33.7889 33.5662 33.805 33.5759L34.5199 33.9913C34.5489 34.0074 34.594 34.0074 34.623 33.9913Z" fill="#3F434F"/>
<path d="M35.6309 31.1186L35.6277 30.9897C35.6277 31.0026 35.6373 31.0123 35.6502 31.0187L36.3684 31.4374C36.3942 31.4535 36.4424 31.4535 36.4714 31.4374L37.1896 31.022C37.2057 31.0123 37.2121 31.0026 37.2121 30.9897V31.1186C37.2121 31.1282 37.2057 31.1411 37.1896 31.1476L36.4714 31.563C36.4424 31.5791 36.3942 31.5791 36.3684 31.563L35.6502 31.1476C35.6373 31.1379 35.6309 31.1282 35.6309 31.1186Z" fill="#3F434F"/>
<path d="M35.808 33.3728L35.0931 32.9574C35.0802 32.9509 35.0706 32.938 35.0706 32.9284V32.8028C35.0706 32.8124 35.077 32.8221 35.0931 32.8318L35.808 33.2472C35.837 33.2633 35.8821 33.2633 35.9111 33.2472L36.6325 32.8318C36.6453 32.8221 36.6518 32.8124 36.6518 32.7996L36.655 32.9284C36.655 32.938 36.6453 32.9509 36.6325 32.9574L35.9111 33.3728C35.8853 33.3889 35.837 33.3889 35.808 33.3728Z" fill="#3F434F"/>
<path d="M38.5841 34.6257C38.6002 34.6161 38.6067 34.6064 38.6067 34.5935V34.7223C38.6067 34.732 38.6002 34.7449 38.5841 34.7513L31.5056 38.8413C31.4766 38.8574 31.4315 38.8574 31.4025 38.8413L30.6844 38.4258C30.6715 38.4162 30.665 38.4065 30.665 38.3936V38.268C30.665 38.2777 30.6715 38.2906 30.6844 38.297L31.3993 38.7125C31.4315 38.7318 31.4766 38.7286 31.5056 38.7125L38.5841 34.6257Z" fill="#3F434F"/>
<path d="M36.4135 34.5129L35.6986 34.0975C35.6825 34.0878 35.676 34.0782 35.676 34.0685V33.9397C35.676 33.9493 35.6825 33.9622 35.6953 33.9687L36.4135 34.3841C36.4425 34.4034 36.4876 34.4002 36.5166 34.3841L37.2379 33.9687C37.2508 33.959 37.2573 33.9493 37.2573 33.9397V34.0685C37.2573 34.0782 37.2508 34.0878 37.2379 34.0943L36.5166 34.5129C36.4876 34.529 36.4425 34.529 36.4135 34.5129Z" fill="#3F434F"/>
<path d="M37.1928 32.5065L38.4746 31.7658C38.4874 31.7594 38.4971 31.7465 38.4971 31.7368V31.8656C38.4971 31.8753 38.4907 31.885 38.4746 31.8946L37.1928 32.6353C37.1606 32.6514 37.1155 32.6514 37.0898 32.6353L36.3748 32.2199C36.3587 32.2102 36.3523 32.2006 36.3523 32.1877V32.0621C36.3523 32.0718 36.3587 32.0846 36.3716 32.0911L37.0898 32.5065C37.1155 32.5226 37.1606 32.5258 37.1928 32.5065Z" fill="#3F434F"/>
<path d="M37.9045 33.5823L39.7563 32.5131C39.7724 32.5035 39.7788 32.4938 39.7788 32.4841L39.782 32.6097C39.782 32.6226 39.7724 32.6323 39.7595 32.6419L37.9045 33.7111C37.8787 33.7272 37.8304 33.7272 37.8014 33.7111L37.0865 33.2957C37.0736 33.286 37.064 33.2764 37.064 33.2635V33.1379C37.064 33.1475 37.0736 33.1572 37.0865 33.1669L37.8014 33.5823C37.8304 33.6016 37.8787 33.5984 37.9045 33.5823Z" fill="#3F434F"/>
<path d="M41.0188 33.2021V33.331C41.0188 33.3406 41.0123 33.3503 40.9962 33.3599L39.1445 34.4291C39.1155 34.4452 39.0704 34.4452 39.0414 34.4291L38.3265 34.0137C38.3104 34.004 38.304 33.9944 38.304 33.9847V33.8559C38.304 33.8688 38.3104 33.8784 38.3265 33.8881L39.0414 34.3035C39.0704 34.3196 39.1155 34.3196 39.1445 34.3035L40.9962 33.2311C41.0123 33.2247 41.0188 33.2118 41.0188 33.2021Z" fill="#3F434F"/>
<path d="M28.1072 39.7263C28.0793 39.7424 28.0772 39.7689 28.1069 39.7862L28.8221 40.2018C28.8518 40.2191 28.8975 40.2179 28.9255 40.2018L30.78 39.1311C30.8079 39.115 30.81 39.0885 30.7803 39.0712L30.0651 38.6556C30.0354 38.6383 29.9897 38.6395 29.9618 38.6556L28.1072 39.7263Z" fill="#525566"/>
<path d="M35.9372 29.7139C36.2084 29.5573 36.6497 29.5573 36.9191 29.7139L42.5456 32.9836C42.8151 33.1402 42.8136 33.3958 42.5424 33.5524L29.3613 41.1625C29.0901 41.3191 28.6488 41.3191 28.3794 41.1625L22.7529 37.8928C22.4835 37.7362 22.4849 37.4806 22.7561 37.324L35.9372 29.7139ZM28.6007 41.0347C28.7493 41.1211 28.9918 41.1211 29.1414 41.0347L42.3225 33.4246C42.4721 33.3382 42.4729 33.1978 42.3243 33.1114L36.6978 29.8417C36.5492 29.7553 36.3067 29.7553 36.1571 29.8417L22.976 37.4518C22.8265 37.5381 22.8257 37.6786 22.9742 37.765L28.6007 41.0347Z" fill="#D4DAE8"/>
<path d="M38.9292 38.9752L36.181 40.571C36.0305 40.6586 35.8498 40.6586 35.702 40.5738L33.9502 39.561C33.7887 39.4707 33.7887 39.2407 33.9447 39.1477L36.6956 37.5519C36.8434 37.4643 37.0268 37.4643 37.1746 37.5491L38.9292 38.5619C39.088 38.6522 39.088 38.8822 38.9292 38.9752Z" fill="#CAD0DD"/>
<path d="M23.8537 26.449C24.1187 26.296 24.3839 26.1949 24.6432 26.1422C24.9055 26.0913 25.1318 26.1028 25.3221 26.1767L24.9503 26.9979C24.8265 26.9447 24.6605 26.933 24.4495 26.9751C24.2414 27.012 24.0335 27.0905 23.8287 27.2087C23.6239 27.327 23.4584 27.471 23.3261 27.6445C23.1969 27.8127 23.1311 27.9963 23.1316 28.1901C23.1322 28.3839 23.1988 28.4945 23.3286 28.52C23.4614 28.5474 23.7388 28.4981 24.1668 28.3689C24.5918 28.2414 24.9116 28.2231 25.129 28.3125C25.3465 28.4019 25.4558 28.6542 25.457 29.0695C25.4581 29.4848 25.3206 29.9039 25.0502 30.32C24.7769 30.7378 24.4189 31.0762 23.9731 31.3336C23.3256 31.7074 22.7466 31.7817 22.2422 31.5599L22.6802 30.6969C23.103 30.8723 23.5373 30.833 23.9891 30.5722C24.215 30.4417 24.3955 30.2786 24.5277 30.0913C24.6599 29.9041 24.7257 29.717 24.7252 29.5336C24.7247 29.3501 24.661 29.2413 24.5373 29.2123C24.4105 29.1815 24.1964 29.2115 23.892 29.3041C23.5875 29.3932 23.3554 29.4509 23.1956 29.4739C23.0358 29.4933 22.897 29.4834 22.7731 29.4404C22.5256 29.3685 22.4042 29.1093 22.4029 28.6697C22.4017 28.2267 22.5393 27.8076 22.8187 27.4071C23.0951 27.0083 23.4411 26.6872 23.8537 26.449Z" fill="#F9607F"/>
<path d="M29.2301 23.4629L29.2322 24.2208L27.0156 25.5006L27.0192 26.7638L29.0099 25.6144L29.012 26.3308L27.0212 27.4802L27.0248 28.7572L29.3137 27.4357L29.3159 28.1935L26.3282 29.9185L26.3147 25.1461L29.2301 23.4629Z" fill="#748BFD"/>
<path d="M33.173 20.6249L33.2767 21.2261C33.5189 21.1504 33.7421 21.1299 33.9499 21.1536L34.4272 20.5L35.0535 20.8525L34.7227 21.594C34.8502 21.7592 34.947 21.9642 35.0054 22.2112L35.5763 21.9989L35.5791 23.012L35.007 23.4573C34.9521 23.772 34.8568 24.0835 34.7307 24.3973L35.0646 24.7506L34.4423 25.8306L33.9629 25.7227C33.9207 25.778 33.8785 25.8311 33.8344 25.8809C33.7098 26.028 33.5793 26.1675 33.4431 26.2925L33.4412 25.6237C33.7462 25.3039 34.001 24.9136 34.1903 24.497C34.4007 24.0373 34.5205 23.5569 34.5192 23.1132C34.5161 21.9853 33.7163 21.5273 32.7366 22.0929C31.7492 22.663 30.9566 24.0403 30.9598 25.1683C30.9603 25.3537 30.9839 25.5236 31.0247 25.6747C31.1724 26.1996 31.5522 26.4733 32.0485 26.4278L32.0504 27.0944C31.8639 27.1446 31.6908 27.1495 31.5272 27.129L31.0499 27.7892L30.4236 27.43L30.7563 26.6919C30.6307 26.5234 30.534 26.3228 30.4755 26.0735L29.9028 26.2892L29.8999 25.2761L30.4701 24.8297C30.5288 24.515 30.6242 24.1991 30.7483 23.8886L30.4125 23.532L31.0348 22.4586L31.5142 22.5599C31.7213 22.2966 31.9457 22.0587 32.1876 21.8549L32.2913 21.134L33.173 20.6249Z" fill="#75CA75"/>
<path d="M33.7789 23.2246C33.8265 23.7167 33.5915 24.3144 33.2252 24.7448L33.2351 28.2301C33.2355 28.3802 33.1802 28.5536 33.094 28.7007C33.0079 28.8543 32.8871 28.986 32.7545 29.0625C32.4875 29.2167 32.2716 29.0915 32.2708 28.7869L32.2609 25.3015C31.9242 25.2948 31.6944 25.0228 31.6931 24.5593C31.6919 24.1465 31.8753 23.6758 32.1513 23.2976L32.1537 24.1298L32.7256 24.308L33.3254 23.4532L33.3231 22.6233C33.5714 22.6745 33.7452 22.8881 33.7789 23.2246ZM32.7538 28.8065C32.8767 28.7355 32.9763 28.5631 32.9759 28.4196C32.9755 28.2805 32.8753 28.2234 32.7523 28.2944C32.6275 28.3665 32.5298 28.5378 32.5302 28.6769C32.5306 28.8204 32.6289 28.8786 32.7538 28.8065Z" fill="#4C7891"/>
<path d="M44.3038 14.7719C44.2623 14.7485 44.2053 14.7511 44.1431 14.7874L36.6412 19.119C36.5168 19.189 36.4182 19.3627 36.4182 19.5053L36.4312 24.2464C36.4312 24.319 36.4571 24.3683 36.496 24.3916L36.1305 24.179C36.0916 24.1557 36.0657 24.1065 36.0657 24.0339L36.0527 19.2953C36.0527 19.1501 36.1512 18.9764 36.2757 18.9065L43.7776 14.5748C43.8398 14.5386 43.8968 14.536 43.9383 14.5593L44.3038 14.7719Z" fill="#FA5168"/>
<path d="M38.4734 23.2934L38.4786 25.1494L38.1131 24.9394L38.1079 23.0808L38.4734 23.2934Z" fill="#FA5168"/>
<path d="M44.1425 14.7872C44.2666 14.7156 44.3679 14.7714 44.3683 14.9159L44.3818 19.6571C44.3822 19.7997 44.2815 19.974 44.1574 20.0457L40.0895 22.3617L38.4794 25.1505L38.4741 23.2943L36.6567 24.3762C36.5326 24.4478 36.4313 24.3901 36.4309 24.2475L36.4175 19.5064C36.4171 19.3618 36.5177 19.1894 36.6418 19.1178L44.1425 14.7872Z" fill="#F9607F"/>
<path d="M38.4933 22.0569L38.4939 22.2642L36.8885 23.191L36.8879 22.9838L38.4933 22.0569Z" fill="white"/>
<path d="M37.6577 21.9888L37.6583 22.1961L36.8871 22.6413L36.8865 22.4341L37.6577 21.9888Z" fill="white"/>
<path d="M38.7119 21.3801L38.7125 21.5874L37.9413 22.0327L37.9407 21.8254L38.7119 21.3801Z" fill="white"/>
<path d="M38.4904 20.9556L38.491 21.161L36.8856 22.0878L36.885 21.8824L38.4904 20.9556Z" fill="white"/>
<path d="M37.6546 20.8877L37.6551 21.0931L36.8839 21.5384L36.8833 21.333L37.6546 20.8877Z" fill="white"/>
<path d="M38.7088 20.2791L38.7093 20.4844L37.9381 20.9297L37.9375 20.7243L38.7088 20.2791Z" fill="white"/>
<path d="M38.4872 19.8525L38.4878 20.0598L36.8824 20.9867L36.8818 20.7794L38.4872 19.8525Z" fill="white"/>
<path d="M37.6514 19.7847L37.652 19.992L36.8807 20.4373L36.8801 20.2299L37.6514 19.7847Z" fill="white"/>
<path d="M38.4841 18.7534L38.4846 18.9569L36.8792 19.8838L36.8787 19.6803L38.4841 18.7534Z" fill="white"/>
<path d="M38.7058 19.1758L38.7064 19.3831L37.9352 19.8284L37.9346 19.6211L38.7058 19.1758Z" fill="white"/>
<path d="M39.5482 18.1389L39.5487 18.3424L38.7791 18.7867L38.7786 18.5832L39.5482 18.1389Z" fill="white"/>
<path d="M40.6072 18.6287L40.6078 18.8359L39.8365 19.2812L39.8359 19.0739L40.6072 18.6287Z" fill="white"/>
<path d="M40.6043 17.5293L40.6048 17.7328L39.8336 18.1781L39.833 17.9746L40.6043 17.5293Z" fill="white"/>
<path d="M40.6058 18.0789L40.6064 18.2862L38.9977 19.215L38.9971 19.0076L40.6058 18.0789Z" fill="white"/>
<path d="M40.609 19.1819L40.6095 19.3873L39.0008 20.316L39.0002 20.1107L40.609 19.1819Z" fill="white"/>
<path d="M39.5513 19.2383L39.5519 19.4456L38.7823 19.8899L38.7817 19.6826L39.5513 19.2383Z" fill="white"/>
<path d="M39.5545 20.3413L39.5551 20.5467L38.7855 20.991L38.7849 20.7856L39.5545 20.3413Z" fill="white"/>
<path d="M39.5577 21.4424L39.5583 21.6497L38.7887 22.094L38.7881 21.8867L39.5577 21.4424Z" fill="white"/>
<path d="M40.6104 19.7317L40.6109 19.9371L39.8397 20.3824L39.8391 20.177L40.6104 19.7317Z" fill="white"/>
<path d="M40.6119 20.2832L40.6125 20.4905L39.0038 21.4193L39.0032 21.212L40.6119 20.2832Z" fill="white"/>
<path d="M40.6135 20.8328L40.6141 21.04L39.8429 21.4853L39.8423 21.278L40.6135 20.8328Z" fill="white"/>
<path d="M41.7967 17.7607L41.9295 17.8364L41.3373 18.8641L41.9334 19.2038L41.8014 19.4324L41.0725 19.017L41.7967 17.7607Z" fill="white"/>
<path d="M43.0133 17.0586L43.7423 17.4759L43.0181 18.7303L42.8852 18.6545L43.4774 17.6288L42.8813 17.2872L43.0133 17.0586Z" fill="white"/>
<path d="M42.653 16.9293L42.8319 16.8945L42.1714 19.5579L41.9941 19.5917L42.653 16.9293Z" fill="white"/>
<path d="M21.9973 28.8247C21.9608 28.8028 21.9073 28.8052 21.8489 28.8393L14.8135 32.9005C14.6968 32.9686 14.6044 33.1315 14.6044 33.2628L14.6165 37.7132C14.6165 37.7788 14.6384 37.825 14.6773 37.8469L14.3344 37.6475C14.2955 37.6256 14.2736 37.5794 14.2736 37.5138L14.2615 33.0634C14.2615 32.9321 14.3539 32.7692 14.4706 32.7011L21.506 28.6399C21.5644 28.6058 21.6179 28.6034 21.6544 28.6252L21.9973 28.8247Z" fill="#75CA75"/>
<path d="M21.8494 28.8391C21.9658 28.7718 22.0593 28.8269 22.0597 28.9589L22.0723 33.4085C22.0727 33.5423 21.9798 33.7032 21.8634 33.7704L21.343 34.0573L21.3479 35.8004L19.826 34.9331L14.8282 37.8321C14.7102 37.9003 14.6168 37.847 14.6164 37.7132L14.6038 33.2636C14.6034 33.1315 14.6962 32.9689 14.8142 32.9008L21.8494 28.8391Z" fill="#9AD898"/>
<path d="M21.1756 30.9724C21.3495 30.872 21.4367 30.9182 21.4372 31.1126L21.4385 31.5711C21.4387 31.6211 21.4465 31.6523 21.4621 31.663C21.4762 31.6763 21.501 31.6727 21.5336 31.6538L21.5802 31.6269L21.5808 31.8321L21.5342 31.859C21.5016 31.8778 21.4768 31.9011 21.4629 31.9288C21.4474 31.9574 21.4397 31.9975 21.4399 32.0457L21.4412 32.5221C21.4418 32.7148 21.3551 32.8631 21.1812 32.9635L21.116 33.0012L21.1154 32.796C21.1667 32.7664 21.2023 32.7386 21.2209 32.7136C21.2395 32.6868 21.2488 32.6547 21.2487 32.6172L21.2472 32.0998C21.2469 31.9963 21.2886 31.9132 21.374 31.8479C21.2886 31.8793 21.2465 31.8429 21.2462 31.7394L21.2448 31.2613C21.2446 31.1774 21.2056 31.1588 21.1265 31.2045L21.1109 31.2152L21.1104 31.0101L21.1756 30.9724Z" fill="white"/>
<path d="M19.514 31.9316L19.5146 32.1368L19.4991 32.144C19.4199 32.1897 19.3796 32.254 19.3798 32.3379L19.3812 32.8161C19.3815 32.9195 19.3397 33.0044 19.256 33.0706C19.3398 33.0383 19.3819 33.073 19.3822 33.1765L19.3837 33.6939C19.3838 33.7313 19.3932 33.7527 19.4119 33.758C19.4305 33.7615 19.4663 33.748 19.5191 33.7175L19.5196 33.9227L19.4544 33.9604C19.2805 34.0608 19.1933 34.0129 19.1928 33.8202L19.1914 33.3438C19.1913 33.2956 19.1834 33.2644 19.1678 33.2538C19.1522 33.2431 19.1274 33.2485 19.0948 33.2674L19.0482 33.2942L19.0476 33.0891L19.0942 33.0622C19.1268 33.0433 19.1516 33.0183 19.1671 32.9879C19.1825 32.9593 19.1902 32.9192 19.1901 32.8692L19.1888 32.4107C19.1882 32.2162 19.2749 32.0697 19.4488 31.9693L19.514 31.9316Z" fill="white"/>
<path d="M16.5606 32.9773L16.5612 33.1682L15.0535 34.0386L15.053 33.8477L16.5606 32.9773Z" fill="white"/>
<path d="M15.778 33.9456L15.7785 34.14L15.055 34.5578L15.0544 34.3633L15.778 33.9456Z" fill="white"/>
<path d="M16.7699 34.4094L16.7705 34.6021L16.0469 35.0198L16.0464 34.8272L16.7699 34.4094Z" fill="white"/>
<path d="M16.5665 35.0452L16.567 35.2361L15.0594 36.1065L15.0588 35.9156L16.5665 35.0452Z" fill="white"/>
<path d="M15.7809 34.9805L15.7815 35.1731L15.0579 35.5909L15.0574 35.3982L15.7809 34.9805Z" fill="white"/>
<path d="M16.5636 34.0085L16.5641 34.203L15.0565 35.0734L15.0559 34.879L16.5636 34.0085Z" fill="white"/>
<path d="M15.7838 36.0134L15.7844 36.2079L15.0609 36.6257L15.0603 36.4312L15.7838 36.0134Z" fill="white"/>
<path d="M16.767 33.3748L16.7676 33.5692L16.044 33.987L16.0435 33.7925L16.767 33.3748Z" fill="white"/>
<path d="M16.7729 35.4424L16.7734 35.6369L16.0499 36.0546L16.0493 35.8601L16.7729 35.4424Z" fill="white"/>
<path d="M16.5694 36.0764L16.57 36.2709L15.0623 37.1413L15.0618 36.9469L16.5694 36.0764Z" fill="white"/>
<path d="M17.5574 32.4019L17.558 32.5928L16.836 33.0096L16.8354 32.8187L17.5574 32.4019Z" fill="white"/>
<path d="M18.5538 33.8977L18.5543 34.0886L17.8323 34.5055L17.8318 34.3145L18.5538 33.8977Z" fill="white"/>
<path d="M18.5508 32.8611L18.5514 33.0555L17.8294 33.4724L17.8289 33.2779L18.5508 32.8611Z" fill="white"/>
<path d="M17.5633 34.4697L17.5638 34.6606L16.8419 35.0775L16.8413 34.8866L17.5633 34.4697Z" fill="white"/>
<path d="M18.5553 34.4133L18.5559 34.6078L17.0467 35.4791L17.0461 35.2847L18.5553 34.4133Z" fill="white"/>
<path d="M18.5524 33.3804L18.553 33.573L17.0438 34.4444L17.0432 34.2517L18.5524 33.3804Z" fill="white"/>
<path d="M17.5604 33.4331L17.5609 33.6276L16.8389 34.0444L16.8384 33.85L17.5604 33.4331Z" fill="white"/>
<path d="M17.5662 35.501L17.5668 35.6954L16.8448 36.1123L16.8442 35.9178L17.5662 35.501Z" fill="white"/>
<path d="M18.5479 31.8298L18.5485 32.0207L17.8265 32.4376L17.8259 32.2467L18.5479 31.8298Z" fill="white"/>
<path d="M18.5567 34.929L18.5573 35.1234L17.8353 35.5403L17.8347 35.3458L18.5567 34.929Z" fill="white"/>
<path d="M18.5495 32.3455L18.55 32.5399L17.0408 33.4113L17.0403 33.2168L18.5495 32.3455Z" fill="white"/>
<path d="M19.888 32.1875L19.8883 32.2678L19.5886 32.4408L19.5884 32.3605L19.888 32.1875Z" fill="white"/>
<path d="M20.3009 32.9695L20.3011 33.0498L20.0014 33.2228L20.0012 33.1425L20.3009 32.9695Z" fill="white"/>
<path d="M20.2147 32.7637L20.215 32.844L19.5908 33.2043L19.5906 33.124L20.2147 32.7637Z" fill="white"/>
<path d="M19.8895 32.6978L19.8897 32.7763L19.5901 32.9493L19.5898 32.8708L19.8895 32.6978Z" fill="white"/>
<path d="M19.891 33.2063L19.8912 33.2866L19.5915 33.4596L19.5913 33.3793L19.891 33.2063Z" fill="white"/>
<path d="M20.2994 32.4612L20.2996 32.5397L20 32.7127L19.9998 32.6342L20.2994 32.4612Z" fill="white"/>
<path d="M20.2133 32.2551L20.2135 32.3354L19.5893 32.6958L19.5891 32.6155L20.2133 32.2551Z" fill="white"/>
<path d="M20.298 31.9509L20.2982 32.0312L19.9985 32.2042L19.9983 32.1239L20.298 31.9509Z" fill="white"/>
<path d="M21.0386 32.0344L21.0388 32.1129L20.4131 32.4742L20.4128 32.3957L21.0386 32.0344Z" fill="white"/>
<path d="M20.6278 32.0159L20.628 32.0962L20.3284 32.2692L20.3281 32.1889L20.6278 32.0159Z" fill="white"/>
<path d="M20.6293 32.5244L20.6295 32.6047L20.3298 32.7777L20.3296 32.6974L20.6293 32.5244Z" fill="white"/>
<path d="M21.0392 32.2876L21.0394 32.3679L20.7397 32.5409L20.7395 32.4606L21.0392 32.2876Z" fill="white"/>
<path d="M21.0371 31.5242L21.0373 31.6045L20.4116 31.9657L20.4114 31.8854L21.0371 31.5242Z" fill="white"/>
<path d="M21.0377 31.7793L21.0379 31.8596L20.7383 32.0326L20.738 31.9523L21.0377 31.7793Z" fill="white"/>
<path d="M21.04 32.543L21.0403 32.6232L20.4145 32.9845L20.4143 32.9042L21.04 32.543Z" fill="white"/>
<path d="M41.4124 26.4465L41.86 26.1864L40.6402 23.8325L40.1926 24.0926L41.4124 26.4465Z" fill="#FED57A"/>
<path d="M44.6555 29.1165L44.2078 29.3763L42.1709 25.8665L42.6186 25.6067L44.6555 29.1165Z" fill="#FED57A"/>
<path d="M46.5123 31.7381L46.9599 31.478L45.3494 28.6909L44.9019 28.951L46.5123 31.7381Z" fill="#FED57A"/>
<path d="M47.2911 31.4061L47.7387 31.146L46.96 31.4781L46.5125 31.7382L47.2911 31.4061Z" fill="#EFAC41"/>
<path d="M47.2856 33.2627L47.7332 33.0026L47.7385 31.146L47.2909 31.4061L47.2856 33.2627Z" fill="#FED57A"/>
<path d="M40.1926 24.0925L40.1782 29.1591L47.2857 33.2626L47.291 31.406L46.5123 31.7381L44.9019 28.951L44.2163 29.3929L42.1734 25.8871L41.4124 26.4464L40.1926 24.0925Z" fill="#F9BB4A"/>
<path d="M37.7705 41.9836L37.7729 42.8178C37.7735 43.0539 37.8819 43.2897 38.0988 43.4987L38.0965 42.6645C37.8796 42.4555 37.7712 42.2197 37.7705 41.9836Z" fill="#D4DAE8"/>
<path d="M36.5647 43.8623L36.5671 44.6965C36.568 45.0111 36.7738 45.3248 37.1853 45.5639C37.2535 45.6035 37.3249 45.6413 37.4094 45.6752L37.407 44.841C37.3225 44.8071 37.2511 44.7694 37.183 44.7297C36.7714 44.4906 36.5656 44.1769 36.5647 43.8623Z" fill="#576CFB"/>
<path d="M47.7384 42.7132C47.7384 43.0509 47.5132 43.3886 47.0681 43.6495L41.1378 47.0726C40.2526 47.5843 38.8097 47.5843 37.9245 47.0675C37.4844 46.8117 37.2644 46.4791 37.2644 46.1414L37.2593 45.3074C37.2593 45.6451 37.4844 45.9777 37.9245 46.2335C38.8097 46.7503 40.2475 46.7503 41.1378 46.2386L47.063 42.8155C47.5081 42.5597 47.7332 42.222 47.7332 41.8894L47.7384 42.7132Z" fill="#576CFB"/>
<path d="M38.4575 41.0272C37.6865 41.4723 37.5622 42.1495 38.0966 42.6644C37.7674 42.7228 37.4574 42.8266 37.1993 42.9756C36.3598 43.4603 36.3521 44.2468 37.183 44.7297C37.2511 44.7693 37.3225 44.807 37.407 44.841C37.1016 45.3068 37.2743 45.8576 37.9234 46.2348C38.8095 46.7497 40.2487 46.7498 41.1373 46.2367L47.0634 42.8153C47.9553 42.3004 47.96 41.4667 47.0739 40.9518C46.4021 40.5614 45.4094 40.4652 44.5812 40.6689C44.5293 40.6311 44.4742 40.5915 44.4125 40.5557C43.5946 40.0804 42.2661 40.0804 41.4428 40.5557C41.322 40.6255 41.2206 40.699 41.1322 40.7801C40.2675 40.5274 39.1827 40.6085 38.4575 41.0272Z" fill="#748BFD"/>
<path d="M40.5957 41.4177L41.1338 42.8071L41.7095 42.4722L43.6911 43.6238L44.3941 43.2179L42.4125 42.0663L42.9882 41.7315L40.5957 41.4177Z" fill="#E4E8F4"/>
<path d="M38.4998 42.6277L40.4792 43.7781L39.9013 44.1142L42.2981 44.4279L41.7579 43.0373L41.18 43.3735L39.2005 42.2231L38.4998 42.6277Z" fill="#FED57A"/>
</g>
<defs>
<clipPath id="clip0_1055_1413">
<rect width="34" height="34" fill="white" transform="translate(14 14)"/>
</clipPath>
</defs>
</svg>
